<svg xmlns="http://www.w3.org/2000/svg" width="32" height="32" viewBox="0 0 24 24" fill="none">
  <!-- Ocean background -->
  <circle cx="12" cy="12" r="10" fill="#4A90E2" stroke="#2E5C8A" stroke-width="1"/>
  
  <!-- Continents -->
  <!-- North America -->
  <path d="M6 8c0.5-1 1.5-1.5 2.5-1.2C9 7 9.5 7.5 10 8c0.3 0.8 0.2 1.5-0.2 2.2c-0.5 0.5-1.2 0.3-1.8 0.1C7.2 10 6.8 9.2 6 8z" fill="#34A853"/>
  
  <!-- Europe/Africa -->
  <path d="M10.5 6c0.8-0.3 1.5 0 2 0.5c0.3 0.8 0.2 1.8-0.2 2.5c-0.3 1.2-0.5 2.5-0.1 3.8c0.2 0.8 0.8 1.2 1.3 1.8c0.2 0.5 0 1-0.5 1.2c-0.8 0.1-1.5-0.3-2-0.8c-0.8-0.8-1.2-2-1.8-2.8c-0.5-0.5-1.2-0.2-1.5-0.8c-0.2-0.8 0.2-1.8 0.8-2.4c0.5-0.8 1.2-1.5 2-2z" fill="#34A853"/>
  
  <!-- Asia -->
  <path d="M14 5c0.8 0.2 1.5 0.8 2 1.5c0.5 0.8 0.3 1.8 0.8 2.5c0.3 0.5 0.8 0.8 1 1.3c0.1 0.8-0.3 1.5-0.8 2c-0.8 0.5-1.8 0.2-2.5 0.8c-0.5 0.5-0.3 1.3-0.8 1.8c-0.5 0.3-1.2 0-1.5-0.5c-0.2-0.8 0.2-1.8-0.2-2.5c-0.3-0.5-0.8-0.8-0.8-1.4c0-0.8 0.5-1.5 1-2.2c0.3-0.8 0.8-1.5 1.8-1.8z" fill="#34A853"/>
  
  <!-- South America -->
  <path d="M8 14c0.3 0.5 0.8 0.8 1 1.3c0.1 0.8-0.2 1.5-0.5 2.2c-0.3 0.5-0.8 0.8-1.3 1c-0.5 0.1-1-0.2-1.2-0.7c-0.1-0.8 0.3-1.5 0.5-2.3c0.2-0.5 0.8-0.8 1.5-1.5z" fill="#34A853"/>
  
  <!-- Longitude lines -->
  <path d="M12 2 C12 2 10 6 10 12 C10 18 12 22 12 22" stroke="#2E5C8A" stroke-width="0.5" fill="none"/>
  <path d="M12 2 C12 2 14 6 14 12 C14 18 12 22 12 22" stroke="#2E5C8A" stroke-width="0.5" fill="none"/>
  
  <!-- Latitude lines -->
  <path d="M2 12 L22 12" stroke="#2E5C8A" stroke-width="0.5"/>
  <path d="M4 8 C6 8 8 8 12 8 C16 8 18 8 20 8" stroke="#2E5C8A" stroke-width="0.3" fill="none"/>
  <path d="M4 16 C6 16 8 16 12 16 C16 16 18 16 20 16" stroke="#2E5C8A" stroke-width="0.3" fill="none"/>
  
  <!-- Subtle highlight -->
  <circle cx="12" cy="12" r="10" fill="url(#globeGradient)" stroke="none"/>
  
  <!-- Gradient definition -->
  <defs>
    <radialGradient id="globeGradient" cx="0.3" cy="0.3">
      <stop offset="0%" stop-color="rgba(255,255,255,0.3)"/>
      <stop offset="70%" stop-color="rgba(255,255,255,0.1)"/>
      <stop offset="100%" stop-color="rgba(0,0,0,0.1)"/>
    </radialGradient>
  </defs>
</svg>
